<svg xmlns="http://www.w3.org/2000/svg" xmlns:xlink="http://www.w3.org/1999/xlink" width="2000" zoomAndPan="magnify" viewBox="0 0 1500 1499.999933" height="2000" preserveAspectRatio="xMidYMid meet" version="1.0"><defs><clipPath id="4091c5e220"><path d="M 750 0 C 335.785156 0 0 335.785156 0 750 C 0 1164.214844 335.785156 1500 750 1500 C 1164.214844 1500 1500 1164.214844 1500 750 C 1500 335.785156 1164.214844 0 750 0 Z M 750 0 " clip-rule="nonzero"/></clipPath><clipPath id="739c798e6c"><path d="M 0 0 L 1500 0 L 1500 1500 L 0 1500 Z M 0 0 " clip-rule="nonzero"/></clipPath><clipPath id="f3a4c1011a"><path d="M 750 0 C 335.785156 0 0 335.785156 0 750 C 0 1164.214844 335.785156 1500 750 1500 C 1164.214844 1500 1500 1164.214844 1500 750 C 1500 335.785156 1164.214844 0 750 0 Z M 750 0 " clip-rule="nonzero"/></clipPath><clipPath id="04a6b7117e"><rect x="0" width="1500" y="0" height="1500"/></clipPath><clipPath id="5293cde997"><path d="M 682 300.683594 L 1199.316406 300.683594 L 1199.316406 725.492188 L 682 725.492188 Z M 682 300.683594 " clip-rule="nonzero"/></clipPath><clipPath id="d475be87be"><path d="M 1188.917969 442.363281 C 1195.195312 464.070312 1199.316406 488.902344 1199.316406 513.203125 C 1199.316406 537.503906 1195.785156 560.886719 1189.507812 582.4375 C 1189.3125 582.894531 1189.3125 583.355469 1189.113281 583.8125 C 1164.003906 664.738281 1097.695312 724.347656 1018.566406 725.492188 L 757.613281 725.492188 C 737.71875 725.492188 718.644531 717.589844 704.578125 703.527344 C 690.511719 689.460938 682.613281 670.382812 682.613281 650.492188 L 682.613281 375.683594 C 682.613281 355.789062 690.511719 336.714844 704.578125 322.648438 C 718.644531 308.582031 737.71875 300.683594 757.613281 300.683594 L 1018.320312 300.683594 C 1098.085938 301.828125 1164.394531 360.519531 1188.917969 442.363281 Z M 1188.917969 442.363281 " clip-rule="nonzero"/></clipPath><clipPath id="f3154864f1"><path d="M 1 0.683594 L 517.316406 0.683594 L 517.316406 425.492188 L 1 425.492188 Z M 1 0.683594 " clip-rule="nonzero"/></clipPath><clipPath id="bf7f3a92f1"><path d="M 506.917969 142.363281 C 513.195312 164.070312 517.316406 188.902344 517.316406 213.203125 C 517.316406 237.503906 513.785156 260.886719 507.507812 282.4375 C 507.3125 282.894531 507.3125 283.355469 507.113281 283.8125 C 482.003906 364.738281 415.695312 424.347656 336.566406 425.492188 L 75.613281 425.492188 C 55.71875 425.492188 36.644531 417.589844 22.578125 403.527344 C 8.511719 389.460938 0.613281 370.382812 0.613281 350.492188 L 0.613281 75.683594 C 0.613281 55.789062 8.511719 36.714844 22.578125 22.648438 C 36.644531 8.582031 55.71875 0.683594 75.613281 0.683594 L 336.320312 0.683594 C 416.085938 1.828125 482.394531 60.519531 506.917969 142.363281 Z M 506.917969 142.363281 " clip-rule="nonzero"/></clipPath><clipPath id="f66eba7972"><rect x="0" width="518" y="0" height="426"/></clipPath><clipPath id="63d206c7ed"><path d="M 300.679688 300.679688 L 633.597656 300.679688 L 633.597656 1200 L 300.679688 1200 Z M 300.679688 300.679688 " clip-rule="nonzero"/></clipPath><clipPath id="93baf2bc67"><path d="M 375.679688 300.679688 L 558.597656 300.679688 C 578.488281 300.679688 597.566406 308.582031 611.628906 322.648438 C 625.695312 336.710938 633.597656 355.789062 633.597656 375.679688 L 633.597656 1124.320312 C 633.597656 1144.210938 625.695312 1163.289062 611.628906 1177.351562 C 597.566406 1191.417969 578.488281 1199.320312 558.597656 1199.320312 L 375.679688 1199.320312 C 355.789062 1199.320312 336.710938 1191.417969 322.648438 1177.351562 C 308.582031 1163.289062 300.679688 1144.210938 300.679688 1124.320312 L 300.679688 375.679688 C 300.679688 355.789062 308.582031 336.710938 322.648438 322.648438 C 336.710938 308.582031 355.789062 300.679688 375.679688 300.679688 Z M 375.679688 300.679688 " clip-rule="nonzero"/></clipPath><clipPath id="5cbf3438b2"><path d="M 0.679688 0.679688 L 333.597656 0.679688 L 333.597656 899.519531 L 0.679688 899.519531 Z M 0.679688 0.679688 " clip-rule="nonzero"/></clipPath><clipPath id="c4b8ba225a"><path d="M 75.679688 0.679688 L 258.597656 0.679688 C 278.488281 0.679688 297.566406 8.582031 311.628906 22.648438 C 325.695312 36.710938 333.597656 55.789062 333.597656 75.679688 L 333.597656 824.320312 C 333.597656 844.210938 325.695312 863.289062 311.628906 877.351562 C 297.566406 891.417969 278.488281 899.320312 258.597656 899.320312 L 75.679688 899.320312 C 55.789062 899.320312 36.710938 891.417969 22.648438 877.351562 C 8.582031 863.289062 0.679688 844.210938 0.679688 824.320312 L 0.679688 75.679688 C 0.679688 55.789062 8.582031 36.710938 22.648438 22.648438 C 36.710938 8.582031 55.789062 0.679688 75.679688 0.679688 Z M 75.679688 0.679688 " clip-rule="nonzero"/></clipPath><clipPath id="cc8e3b558b"><rect x="0" width="334" y="0" height="900"/></clipPath><clipPath id="cf72085406"><path d="M 682 774.511719 L 1199.316406 774.511719 L 1199.316406 1199.324219 L 682 1199.324219 Z M 682 774.511719 " clip-rule="nonzero"/></clipPath><clipPath id="6932129b5f"><path d="M 1188.917969 916.191406 C 1195.195312 937.898438 1199.316406 962.730469 1199.316406 987.03125 C 1199.316406 1011.332031 1195.785156 1034.71875 1189.507812 1056.265625 C 1189.3125 1056.726562 1189.3125 1057.183594 1189.113281 1057.640625 C 1164.003906 1138.570312 1097.695312 1198.175781 1018.566406 1199.324219 L 757.613281 1199.324219 C 737.71875 1199.324219 718.644531 1191.421875 704.578125 1177.355469 C 690.511719 1163.289062 682.613281 1144.214844 682.613281 1124.324219 L 682.613281 849.511719 C 682.613281 829.621094 690.511719 810.542969 704.578125 796.476562 C 718.644531 782.414062 737.71875 774.511719 757.613281 774.511719 L 1018.320312 774.511719 C 1098.085938 775.65625 1164.394531 834.347656 1188.917969 916.191406 Z M 1188.917969 916.191406 " clip-rule="nonzero"/></clipPath><clipPath id="d6c879d816"><path d="M 1 0.511719 L 517.316406 0.511719 L 517.316406 425.324219 L 1 425.324219 Z M 1 0.511719 " clip-rule="nonzero"/></clipPath><clipPath id="79a319c833"><path d="M 506.917969 142.191406 C 513.195312 163.898438 517.316406 188.730469 517.316406 213.03125 C 517.316406 237.332031 513.785156 260.71875 507.507812 282.265625 C 507.3125 282.726562 507.3125 283.183594 507.113281 283.640625 C 482.003906 364.570312 415.695312 424.175781 336.566406 425.324219 L 75.613281 425.324219 C 55.71875 425.324219 36.644531 417.421875 22.578125 403.355469 C 8.511719 389.289062 0.613281 370.214844 0.613281 350.324219 L 0.613281 75.511719 C 0.613281 55.621094 8.511719 36.542969 22.578125 22.476562 C 36.644531 8.414062 55.71875 0.511719 75.613281 0.511719 L 336.320312 0.511719 C 416.085938 1.65625 482.394531 60.347656 506.917969 142.191406 Z M 506.917969 142.191406 " clip-rule="nonzero"/></clipPath><clipPath id="fda0d6f62e"><rect x="0" width="518" y="0" height="426"/></clipPath></defs><g clip-path="url(#4091c5e220)"><g transform="matrix(1, 0, 0, 1, 0, 0.000000000000112861)"><g clip-path="url(#04a6b7117e)"><g clip-path="url(#739c798e6c)"><g clip-path="url(#f3a4c1011a)"><rect x="-330" width="2160" fill="#1d4ed8" height="2159.999904" y="-329.999985" fill-opacity="1"/></g></g></g></g></g><g clip-path="url(#5293cde997)"><g clip-path="url(#d475be87be)"><g transform="matrix(1, 0, 0, 1, 682, 300)"><g clip-path="url(#f66eba7972)"><g clip-path="url(#f3154864f1)"><g clip-path="url(#bf7f3a92f1)"><path fill="#ffffff" d="M 517.316406 0.683594 L 517.316406 425.492188 L 1.238281 425.492188 L 1.238281 0.683594 Z M 517.316406 0.683594 " fill-opacity="1" fill-rule="nonzero"/></g></g></g></g></g></g><g clip-path="url(#63d206c7ed)"><g clip-path="url(#93baf2bc67)"><g transform="matrix(1, 0, 0, 1, 300, 300)"><g clip-path="url(#cc8e3b558b)"><g clip-path="url(#5cbf3438b2)"><g clip-path="url(#c4b8ba225a)"><path fill="#ffffff" d="M 0.679688 0.679688 L 333.597656 0.679688 L 333.597656 899.296875 L 0.679688 899.296875 Z M 0.679688 0.679688 " fill-opacity="1" fill-rule="nonzero"/></g></g></g></g></g></g><g clip-path="url(#cf72085406)"><g clip-path="url(#6932129b5f)"><g transform="matrix(1, 0, 0, 1, 682, 774)"><g clip-path="url(#fda0d6f62e)"><g clip-path="url(#d6c879d816)"><g clip-path="url(#79a319c833)"><path fill="#ffffff" d="M 517.316406 0.511719 L 517.316406 425.324219 L 1.238281 425.324219 L 1.238281 0.511719 Z M 517.316406 0.511719 " fill-opacity="1" fill-rule="nonzero"/></g></g></g></g></g></g></svg>
